<?xml version="1.0" encoding="utf-8"?>
<!-- Generator: Adobe Illustrator 18.1.0, SVG Export Plug-In . SVG Version: 6.00 Build 0)  -->
<svg version="1.1" id="Слой_1" xmlns="http://www.w3.org/2000/svg" xmlns:xlink="http://www.w3.org/1999/xlink" x="0px" y="0px"
	 viewBox="0 0 300 100" enable-background="new 0 0 300 100" xml:space="preserve">
<g>
	<path d="M100,48C98.9,21.3,77,0,50,0S1.1,21.3,0.1,48H100z"/>
	<path d="M0.1,52c1.1,26.7,23,48,50,48s48.9-21.3,50-48H0.1z"/>
	<polygon points="0,50 0,50 0,50 	"/>
</g>
<g>
	<g>
		<path d="M108.2,41.9c3.3-17,16.7-30.4,33.7-33.7V0c-21.5,3.5-38.4,20.4-41.9,41.9H108.2z"/>
		<path d="M158.1,8.2c17,3.3,30.4,16.7,33.7,33.7h8.2C196.5,20.4,179.6,3.5,158.1,0V8.2z"/>
		<path d="M141.9,91.8c-17-3.3-30.4-16.7-33.7-33.7H100c3.5,21.5,20.4,38.4,41.9,41.9V91.8z"/>
		<path d="M191.8,58.1c-3.3,17-16.7,30.4-33.7,33.7v8.2c21.5-3.5,38.4-20.4,41.9-41.9H191.8z"/>
	</g>
	<circle fill="#643CFA" cx="150" cy="50" r="24"/>
</g>
<g>
	<path d="M288,100h-76c-6.6,0-12-5.4-12-12V12c0-6.6,5.4-12,12-12h76c6.6,0,12,5.4,12,12v76C300,94.6,294.6,100,288,100z M212,8
		c-2.2,0-4,1.8-4,4v76c0,2.2,1.8,4,4,4h76c2.2,0,4-1.8,4-4V12c0-2.2-1.8-4-4-4H212z"/>
</g>
<g>
	<rect x="220" y="20" fill="#643CFA" width="60" height="12"/>
</g>
<g>
	<rect x="220" y="40" fill="#643CFA" width="60" height="8"/>
</g>
<g>
	<rect x="220" y="56" fill="#643CFA" width="60" height="8"/>
</g>
<g>
	<rect x="220" y="72" fill="#643CFA" width="45.9" height="8"/>
</g>
</svg>